<svg width="100" height="101" viewBox="0 0 100 101" fill="none" xmlns="http://www.w3.org/2000/svg">
<mask id="mask0_2102_38" style="mask-type:luminance" maskUnits="userSpaceOnUse" x="10" y="10" width="80" height="81">
<path d="M90 10.5H10V90.5H90V10.5Z" fill="white"/>
</mask>
<g mask="url(#mask0_2102_38)">
<path d="M55.3868 21.4737C56.299 20.3188 56.863 18.8626 56.863 17.2803C56.863 13.5415 53.8306 10.5 50.0918 10.5C46.3529 10.5 43.316 13.5415 43.316 17.2803C43.316 18.8629 43.8 20.3188 44.7116 21.4737C41.9201 23.2433 39.999 26.3581 39.999 29.9009V38.1501C39.999 39.4057 41.1461 40.4955 42.4017 40.4955H57.8003C59.0559 40.4955 60.0011 39.4054 60.0011 38.1501V29.9009C60.0008 26.3581 58.1789 23.243 55.3868 21.4737Z" fill="#572E91"/>
<path d="M34.8475 48.2429V39.9936C34.8475 36.4512 33.1037 33.3357 30.3116 31.5665C31.2238 30.4115 31.8269 28.9554 31.8269 27.3731C31.8269 23.6343 28.8139 20.5928 25.0751 20.5928C21.3363 20.5928 18.309 23.6346 18.309 27.3734C18.309 28.956 18.8712 30.4118 19.7828 31.5668C16.991 33.3364 15.1484 36.4512 15.1484 39.9939V48.2432C15.1484 49.4987 16.1488 50.497 17.4041 50.497H32.8028C34.0583 50.4967 34.8475 49.4984 34.8475 48.2429Z" fill="#572E91"/>
<path d="M80.3205 31.5665C81.2321 30.4115 81.8376 28.9554 81.8376 27.3731C81.8376 23.6343 78.8255 20.5928 75.0866 20.5928C71.3478 20.5928 68.3209 23.6343 68.3209 27.3731C68.3209 28.9557 68.8794 30.4115 69.7913 31.5665C66.9995 33.3361 65.1533 36.4509 65.1533 39.9936V48.2429C65.1533 49.4984 66.1613 50.4967 67.4169 50.4967H82.8155C84.0711 50.4967 84.8524 49.4984 84.8524 48.2429V39.9936C84.8524 36.4509 83.1119 33.3357 80.3205 31.5665Z" fill="#572E91"/>
<path d="M55.3868 71.5555C56.299 70.4005 56.863 68.9446 56.863 67.3623C56.863 63.6235 53.8306 60.582 50.0918 60.582C46.3529 60.582 43.316 63.6235 43.316 67.3623C43.316 68.9446 43.8 70.4008 44.7116 71.5558C41.9201 73.3253 39.999 76.4401 39.999 79.9829V88.2321C39.999 89.4877 41.1461 90.5002 42.4017 90.5002H57.8003C59.0559 90.5002 60.0011 89.4874 60.0011 88.2321V79.9829C60.0008 76.4398 58.1789 73.3253 55.3868 71.5555ZM50.1009 65.1279C51.3328 65.1279 52.3353 66.1304 52.3353 67.3623C52.3353 68.5946 51.3328 69.5968 50.1009 69.5968C48.8689 69.5968 47.8664 68.5943 47.8664 67.3623C47.8664 66.1304 48.8686 65.1279 50.1009 65.1279ZM55.455 85.9543H44.5449V79.9829C44.5449 76.9905 47.0078 74.5563 50.0002 74.5563C52.992 74.5563 55.455 76.9905 55.455 79.9829V85.9543Z" fill="#572E91"/>
<path d="M52.122 52.4907V44.9585C52.122 43.7029 51.1047 42.6855 49.8491 42.6855C48.5935 42.6855 47.5762 43.7029 47.5762 44.9585V52.4907C47.5762 53.7462 48.5935 54.7636 49.8491 54.7636C51.1044 54.7636 52.122 53.7459 52.122 52.4907Z" fill="#572E91"/>
<path d="M27.9816 52.9817C27.0697 52.1189 25.632 52.158 24.768 53.0693C23.9049 53.9809 23.9443 55.4195 24.8556 56.2829L36.2836 67.1042C36.7233 67.5203 37.2852 67.7267 37.8461 67.7267C38.4483 67.7267 39.0499 67.4885 39.4969 67.0166C40.36 66.105 40.3206 64.6664 39.4093 63.803L27.9816 52.9817Z" fill="#572E91"/>
<path d="M72.2005 52.9496L60.8037 63.7957C59.8942 64.6609 59.8588 66.0998 60.724 67.009C61.1707 67.4788 61.7702 67.7151 62.3708 67.7151C62.9336 67.7151 63.4976 67.5072 63.9373 67.0887L75.3341 56.2426C76.2436 55.3774 76.2791 53.9387 75.4138 53.0296C74.5486 52.1195 73.1097 52.0846 72.2005 52.9496Z" fill="#572E91"/>
</g>
</svg>
