<svg width="100" height="100" viewBox="0 0 100 100" fill="none" xmlns="http://www.w3.org/2000/svg">
<path d="M48.125 39.6191C45.7853 40.2589 44.375 42.0543 44.375 43.7504C44.375 45.4467 45.7853 47.2419 48.125 47.8817V39.6191Z" fill="#572E91"/>
<path d="M51.875 52.1191V60.3816C54.2147 59.7419 55.625 57.9466 55.625 56.2504C55.625 54.5541 54.2147 52.7589 51.875 52.1191Z" fill="#572E91"/>
<path fill-rule="evenodd" clip-rule="evenodd" d="M75 50C75 63.807 63.807 75 50 75C36.1929 75 25 63.807 25 50C25 36.1929 36.1929 25 50 25C63.807 25 75 36.1929 75 50ZM50 33.125C51.0355 33.125 51.875 33.9645 51.875 35V35.7918C55.951 36.5217 59.375 39.584 59.375 43.75C59.375 44.7855 58.5355 45.625 57.5 45.625C56.4645 45.625 55.625 44.7855 55.625 43.75C55.625 42.0539 54.2148 40.2585 51.875 39.6187V48.2917C55.951 49.0217 59.375 52.084 59.375 56.25C59.375 60.416 55.951 63.4782 51.875 64.2083V65C51.875 66.0355 51.0355 66.875 50 66.875C48.9645 66.875 48.125 66.0355 48.125 65V64.2083C44.0489 63.4782 40.625 60.416 40.625 56.25C40.625 55.2145 41.4645 54.375 42.5 54.375C43.5355 54.375 44.375 55.2145 44.375 56.25C44.375 57.9463 45.7852 59.7415 48.125 60.3812V51.7083C44.0489 50.9783 40.625 47.916 40.625 43.75C40.625 39.584 44.0489 36.5217 48.125 35.7918V35C48.125 33.9645 48.9645 33.125 50 33.125Z" fill="#572E91"/>
</svg>
