<svg width="100" height="101" viewBox="0 0 100 101" fill="none" xmlns="http://www.w3.org/2000/svg">
<mask id="mask0_2101_11" style="mask-type:luminance" maskUnits="userSpaceOnUse" x="20" y="20" width="60" height="61">
<path d="M80 20.5H20V80.5H80V20.5Z" fill="white"/>
</mask>
<g mask="url(#mask0_2101_11)">
<path d="M56.8076 27.8332C56.8076 29.07 57.3564 30.3246 58.2109 31.0922C59.1963 30.9215 59.9493 29.1862 59.9493 29.1862H62.0438C62.0438 30.2335 61.495 31.3718 60.6405 32.1384C60.7599 32.1489 60.8751 32.0975 60.9965 32.0975C63.3067 32.0975 65.1855 30.1811 65.1855 27.8699C65.1855 25.5586 63.3067 23.6621 60.9965 23.6621C58.6863 23.6632 56.8076 25.522 56.8076 27.8332Z" fill="#572E91"/>
<path d="M24.3428 40.4003C24.3428 42.7105 26.2215 44.5892 28.5317 44.5892C28.6532 44.5892 28.7684 44.717 28.8878 44.7065C28.0332 43.9389 27.4845 42.8006 27.4845 41.7533H29.5789C29.5789 41.7533 30.3319 43.4886 31.3173 43.6582C32.1719 42.8906 32.7206 41.7125 32.7206 40.4757C32.7206 38.1655 30.8419 36.248 28.5317 36.248C26.2215 36.2491 24.3428 38.0891 24.3428 40.4003Z" fill="#572E91"/>
<path d="M73.5625 24.2848L75.4873 23.6429L73.5625 23.002V24.2848Z" fill="#572E91"/>
<path d="M62.5915 37.2578H61.4961L62.0438 38.6265L62.5915 37.2578Z" fill="#572E91"/>
<path d="M39.0047 60.6027H33.7686C33.1894 60.6027 32.7213 59.8278 32.7213 59.2497V54.0135C32.7213 53.7098 32.8533 53.4219 33.0826 53.2218C33.312 53.0239 33.6167 52.9318 33.9173 52.9768L40.9232 53.9779L47.948 50.4666L47.6307 49.9901L46.9951 49.0371L40.4656 51.8353C40.231 51.9358 39.965 52.1024 39.7221 52.0196L33.5989 50.1304H30.6269V57.461H28.5324V50.1304H25.3907C23.6586 50.1304 22.249 51.2332 22.249 52.9663V63.7444H24.3435V54.3193H26.4379V78.4056H29.5796V64.4858C29.5796 63.9067 30.0477 63.7444 30.6269 63.7444H37.9575C38.5366 63.7444 39.0047 63.9067 39.0047 64.4858V72.1222H42.1464V63.4386C42.1464 61.7055 40.7368 60.6027 39.0047 60.6027Z" fill="#572E91"/>
<path d="M73.5631 36.2106C73.5631 36.7887 73.095 37.5637 72.5158 37.5637H64.847L63.0164 41.9882C62.8572 42.3861 62.4729 42.5705 62.0435 42.5705C61.6152 42.5705 61.2309 42.4249 61.0707 42.0269L59.2401 37.5637H57.1865L51.3618 42.2647L48.5908 47.7312L49.4768 49.0214L52.7944 44.0261C52.8593 43.9266 52.9431 43.8303 53.0374 43.7601L57.2263 40.6132C57.5425 40.3755 57.9688 40.3357 58.3227 40.5116C58.6777 40.6896 58.9018 41.0499 58.9018 41.4468V65.8389H62.0435V60.2969V51.9191C62.0435 51.34 62.5116 51.1776 63.0908 51.1776H70.4214C71.0005 51.1776 71.4686 51.34 71.4686 51.9191V59.5555H74.6103V50.8719C74.6103 49.1387 73.2007 48.036 71.4686 48.036H66.2325C65.6533 48.036 65.1852 47.261 65.1852 46.6829V40.3996C65.1852 39.8204 65.6533 39.6581 66.2325 39.6581H72.5158C74.248 39.6581 75.6575 37.9428 75.6575 36.2106V31.2803H73.5631V36.2106Z" fill="#572E91"/>
<path d="M60.9963 34.1166C64.4616 34.1166 67.2797 31.2985 67.2797 27.8332C67.2797 24.3679 64.4616 21.5498 60.9963 21.5498C57.531 21.5498 54.7129 24.3679 54.7129 27.8332C54.7129 31.2985 57.531 34.1166 60.9963 34.1166ZM60.9963 23.6432C63.3065 23.6432 65.1852 25.5219 65.1852 27.8321C65.1852 30.1423 63.3065 32.0211 60.9963 32.0211C60.8737 32.0211 60.7596 32.1488 60.6402 32.1383C61.4948 31.3718 62.0435 30.2334 62.0435 29.1862H59.949C59.949 29.1862 59.1961 30.9215 58.2106 31.0911C57.3561 30.3245 56.8074 29.1464 56.8074 27.9096C56.8074 25.5994 58.6861 23.6432 60.9963 23.6432Z" fill="#572E91"/>
<path d="M28.5324 46.683C31.9977 46.683 34.8158 43.8649 34.8158 40.3996C34.8158 36.9343 31.9977 34.1162 28.5324 34.1162C25.0671 34.1162 22.249 36.9343 22.249 40.3996C22.249 43.8649 25.0671 46.683 28.5324 46.683ZM28.5324 36.2107C30.8426 36.2107 32.7213 38.0894 32.7213 40.3996C32.7213 41.6364 32.1726 42.891 31.318 43.6586C30.3326 43.4879 29.5796 41.7526 29.5796 41.7526H27.4852C27.4852 42.7998 28.0339 43.9382 28.8885 44.7048C28.7691 44.7152 28.6539 44.6639 28.5324 44.6639C26.2222 44.6639 24.3435 42.7475 24.3435 40.4362C24.3435 38.125 26.2222 36.2107 28.5324 36.2107Z" fill="#572E91"/>
<path d="M79.1301 22.6501L72.8467 20.5557C72.5252 20.4457 72.1765 20.5012 71.9032 20.6992C71.6298 20.8971 71.4686 21.2123 71.4686 21.5485V29.9263V35.4693H56.8074C56.5623 35.4693 56.3246 35.4023 56.1361 35.5583L49.8527 40.718C49.7427 40.8112 49.6516 40.8877 49.5867 41.0165L46.6168 46.9385L40.0045 49.7619L34.0992 47.9428C33.9924 47.9062 33.8803 48.036 33.7683 48.036H25.3904C22.5032 48.036 20.1543 50.0792 20.1543 52.9664V64.4859C20.1543 65.064 20.6224 65.839 21.2015 65.839H24.3432V78.4057H20.1543V80.5002H25.3904H30.6266H34.8155C35.3946 80.5002 35.8627 79.7252 35.8627 79.1472V74.2168H37.9572H43.1934H50.524C51.1031 74.2168 51.5712 73.4418 51.5712 72.8638V67.9334H57.8546H63.0907C63.6698 67.9334 64.138 67.1585 64.138 66.5804V61.65H70.4213H75.6575H78.7992V59.5556H76.7047V50.8719C76.7047 47.9847 74.3558 45.9416 71.4686 45.9416H67.2797V41.7527H72.5158C75.403 41.7527 77.752 39.0969 77.752 36.2107V29.9273C77.752 29.3482 77.2838 29.1859 76.7047 29.1859H73.563V26.4924L79.1301 24.6367C79.5584 24.4943 79.8464 24.0943 79.8464 23.6429C79.8464 23.1916 79.5584 22.7926 79.1301 22.6501ZM62.5912 37.258L62.0435 38.6267L61.4958 37.2569H62.5912V37.258ZM34.8155 72.1223C34.2364 72.1223 33.7683 72.2847 33.7683 72.8638V78.4057H31.6738V65.839H36.91V72.1223H34.8155ZM39.0044 72.1223V64.4859C39.0044 63.9068 38.5363 63.7445 37.9572 63.7445H30.6266C30.0475 63.7445 29.5794 63.9068 29.5794 64.4859V78.4057H26.4377V54.3194H24.3432V63.7445H22.2488V52.9664C22.2488 51.2332 23.6583 50.1305 25.3904 50.1305H28.5321V57.4611H30.6266V50.1305H33.5986L39.7207 52.0176C39.9637 52.1003 40.2297 52.0103 40.4643 51.9108L46.9938 49.0749L47.6294 50.009L47.9467 50.4761L40.9219 53.9833L33.9159 52.98C33.6154 52.935 33.3106 53.0261 33.0813 53.224C32.853 53.422 32.7211 53.7089 32.7211 54.0136V59.2498C32.7211 59.8279 33.1892 60.6028 33.7683 60.6028H39.0044C40.7366 60.6028 42.1461 61.7055 42.1461 63.4387V72.1223H39.0044ZM50.524 65.839C49.9449 65.839 49.4767 66.0013 49.4767 66.5804V72.1223H44.2406V63.4387C44.2406 60.5515 41.8917 58.5084 39.0044 58.5084H34.8155V55.2211L40.9502 56.0976C41.1617 56.1269 41.3754 56.0913 41.567 55.9971L49.9449 51.8082C50.0977 51.7317 50.2182 51.6155 50.3156 51.4804C50.3239 51.4689 50.3397 51.4647 50.348 51.4532L54.4375 45.3195L56.8074 43.5413V65.839H50.524ZM69.3741 59.5556H64.138V53.2722H69.3741V59.5556ZM75.6575 36.2107C75.6575 37.9428 74.2479 39.6582 72.5158 39.6582H66.2324C65.6533 39.6582 65.1852 39.8205 65.1852 40.3996V46.683C65.1852 47.2611 65.6533 48.036 66.2324 48.036H71.4686C73.2007 48.036 74.6103 49.1388 74.6103 50.8719V59.5556H71.4686V51.9192C71.4686 51.3401 71.0005 51.1777 70.4213 51.1777H63.0907C62.5116 51.1777 62.0435 51.3401 62.0435 51.9192V60.297V65.839H58.9018V41.4469C58.9018 41.05 58.6777 40.6876 58.3227 40.5096C57.9687 40.3337 57.5425 40.3703 57.2262 40.6091L53.0373 43.7508C52.942 43.8209 52.8593 43.9079 52.7944 44.0074L49.4767 48.9838L48.5908 47.6538L51.3618 42.2637L57.1864 37.5637H59.2401L61.0706 41.9883C61.2298 42.3862 61.6152 42.5706 62.0435 42.5706C62.4718 42.5706 62.8562 42.425 63.0164 42.027L64.8469 37.5637H72.5158C73.0949 37.5637 73.563 36.7888 73.563 36.2107V31.2804H75.6575V36.2107ZM73.563 24.2849V23.002L75.4878 23.6429L73.563 24.2849Z" fill="#572E91"/>
<path d="M47.3825 25.7373H45.2881V27.8318H47.3825V25.7373Z" fill="#572E91"/>
<path d="M43.1931 25.7373H41.0986V27.8318H43.1931V25.7373Z" fill="#572E91"/>
<path d="M39.0046 25.7373H36.9102V27.8318H39.0046V25.7373Z" fill="#572E91"/>
</g>
</svg>
