<svg width="60" height="61" viewBox="0 0 60 61" fill="none" xmlns="http://www.w3.org/2000/svg">
<g clip-path="url(#clip0_2101_2)">
<mask id="mask0_2101_2" style="mask-type:luminance" maskUnits="userSpaceOnUse" x="0" y="0" width="60" height="61">
<path d="M60 0.5H0V60.5H60V0.5Z" fill="white"/>
</mask>
<g mask="url(#mask0_2101_2)">
<path d="M11.0437 33.5797C11.1031 33.5835 11.1618 33.5867 11.2212 33.5867C12.3958 33.5867 13.3928 32.6813 13.4852 31.4901L14.1306 23.1657L18.4924 20.0222V32.0972C18.4924 32.7043 18.6565 33.2709 18.9193 33.7716L14.023 54.0596C13.6704 55.526 14.5706 56.9983 16.0339 57.3515C16.2505 57.4031 16.4654 57.4261 16.6777 57.4261C17.9092 57.4261 19.0251 56.5881 19.3269 55.34L23.9926 36.0052L29.2945 38.5337L28.8498 45.7107C28.7565 47.2127 29.8981 48.5092 31.4022 48.6013C31.4608 48.6051 31.5177 48.6069 31.5746 48.6069C33.0037 48.6069 34.2042 47.4935 34.2946 46.0481L34.8557 37.0334C34.923 35.9236 34.3124 34.8814 33.3058 34.4038L25.7673 30.8097V22.8277L28.404 25.975C28.7787 26.4226 29.3114 26.7083 29.8891 26.774L37.9062 27.6832C37.993 27.6919 38.0782 27.6975 38.1654 27.6975C39.3053 27.6975 40.2888 26.8407 40.4204 25.6813C40.5624 24.4338 39.6639 23.308 38.4173 23.1659L31.3042 22.3608L25.5086 15.4437C25.3363 15.0043 25.0814 14.6074 24.7618 14.27C24.458 13.0946 23.4001 12.2227 22.1304 12.2227C21.185 12.2227 20.354 12.7023 19.8647 13.4311L10.6194 20.0951C10.0779 20.4864 9.73406 21.0973 9.68361 21.7622L8.95548 31.1363C8.85604 32.3902 9.79267 33.484 11.0437 33.5797Z" fill="#572E91"/>
<path d="M24.5021 11.7874C27.619 11.7874 30.1458 9.26061 30.1458 6.14369C30.1458 3.02677 27.619 0.5 24.5021 0.5C21.3852 0.5 18.8584 3.02677 18.8584 6.14369C18.8584 9.26061 21.3852 11.7874 24.5021 11.7874Z" fill="#572E91"/>
<path d="M51.0828 31.1963L44.3867 33.2865L45.9282 34.8276L38.6075 40.6996C38.3925 40.872 38.2683 41.1327 38.2683 41.4082V49.5903H24.5017C24.0002 49.5903 23.5925 49.9971 23.5925 50.4993V58.6817H9.82621C9.32465 58.6817 8.91699 59.0881 8.91699 59.5906C8.91699 60.093 9.32436 60.4998 9.82621 60.4998H24.5017C25.0033 60.4998 25.4109 60.093 25.4109 59.5906V51.4085H39.1772C39.6779 51.4085 40.0865 51.0017 40.0865 50.4993V41.8451L47.2226 36.1203L48.9929 37.8906L51.0828 31.1963Z" fill="#572E91"/>
</g>
</g>
<defs>
<clipPath id="clip0_2101_2">
<rect width="60" height="61" fill="white"/>
</clipPath>
</defs>
</svg>
