<svg width="100" height="100" viewBox="0 0 100 100" fill="none" xmlns="http://www.w3.org/2000/svg">
<mask id="mask0_2102_51" style="mask-type:luminance" maskUnits="userSpaceOnUse" x="20" y="20" width="60" height="60">
<path d="M80 20H20V80H80V20Z" fill="white"/>
</mask>
<g mask="url(#mask0_2102_51)">
<path d="M49.9849 70.2021C46.0738 70.2021 42.8047 72.9775 42.0244 76.6614H57.9257C57.1652 72.9775 53.896 70.2021 49.9849 70.2021Z" fill="#572E91"/>
<path d="M49.9856 61.8471C51.2794 61.8471 52.3461 60.7804 52.3461 59.4865C52.3461 58.1927 51.2794 57.126 49.9856 57.126C48.6917 57.126 47.625 58.1927 47.625 59.4865C47.625 60.7804 48.6917 61.8471 49.9856 61.8471Z" fill="#572E91"/>
<path d="M49.985 66.8633C43.6739 66.8633 38.5381 71.9991 38.5381 78.3102C38.5381 79.2287 39.2788 79.9793 40.2072 79.9793H59.7924C60.7109 79.9793 61.4615 79.2386 61.4615 78.3102C61.4318 72.009 56.2961 66.8633 49.985 66.8633ZM42.0245 76.6609C42.7948 72.977 46.0739 70.2016 49.985 70.2016C53.8961 70.2016 57.1652 72.977 57.9455 76.6609H42.0245Z" fill="#572E91"/>
<path d="M49.9849 65.1749C53.1257 65.1749 55.6837 62.6267 55.6837 59.4761C55.6837 56.3353 53.1355 53.7773 49.9849 53.7773C46.8343 53.7773 44.2861 56.3255 44.2861 59.4761C44.2861 62.6267 46.8441 65.1749 49.9849 65.1749ZM49.9849 57.1255C51.2788 57.1255 52.3455 58.1922 52.3455 59.4859C52.3455 60.7798 51.2788 61.8465 49.9849 61.8465C48.691 61.8465 47.6243 60.7798 47.6243 59.4859C47.6243 58.1725 48.691 57.1255 49.9849 57.1255Z" fill="#572E91"/>
<path d="M31.4464 28.0794C32.7402 28.0794 33.8069 27.0127 33.8069 25.7188C33.8069 24.4249 32.7402 23.3584 31.4464 23.3584C30.1525 23.3584 29.0859 24.4251 29.0859 25.7188C29.0859 27.0125 30.1526 28.0794 31.4464 28.0794Z" fill="#572E91"/>
<path d="M68.523 36.4248C64.6119 36.4248 61.3427 39.2002 60.5625 42.8841H76.4638C75.6933 39.2002 72.4242 36.4248 68.523 36.4248Z" fill="#572E91"/>
<path d="M31.4468 36.4248C27.5357 36.4248 24.2666 39.2002 23.4863 42.8841H39.3876C38.637 39.2002 35.3579 36.4248 31.4468 36.4248Z" fill="#572E91"/>
<path d="M68.5237 28.0795C69.8175 28.0795 70.8842 27.0128 70.8842 25.719C70.8842 24.4251 69.8175 23.3584 68.5237 23.3584C67.2298 23.3584 66.1631 24.4251 66.1631 25.719C66.1631 27.0128 67.2101 28.0795 68.5237 28.0795Z" fill="#572E91"/>
<path d="M31.4469 33.0967C25.1358 33.0967 20 38.2325 20 44.5436C20 45.4621 20.7407 46.2127 21.6691 46.2127H41.2543C42.1728 46.2127 42.9234 45.472 42.9234 44.5436C42.9136 38.2325 37.7679 33.0967 31.4469 33.0967ZM23.5061 42.8844C24.2764 39.2005 27.5455 36.4251 31.4469 36.4251C35.358 36.4251 38.6271 39.2005 39.4074 42.8844H23.5061Z" fill="#572E91"/>
<path d="M31.4467 31.4073C34.5875 31.4073 37.1454 28.8591 37.1454 25.7085C37.1454 22.5579 34.5875 20.0195 31.4467 20.0195C28.3058 20.0195 25.7578 22.5677 25.7578 25.7183C25.7578 28.8689 28.306 31.4073 31.4467 31.4073ZM31.4467 23.348C32.7405 23.348 33.8072 24.4146 33.8072 25.7085C33.8072 27.0024 32.7405 28.0691 31.4467 28.0691C30.1528 28.0691 29.0861 27.0123 29.0861 25.7085C29.0861 24.4047 30.1529 23.348 31.4467 23.348Z" fill="#572E91"/>
<path d="M68.5231 33.0967C62.212 33.0967 57.0762 38.2325 57.0762 44.5436C57.0762 45.4621 57.8168 46.2127 58.7453 46.2127H78.3305C79.249 46.2127 79.9996 45.472 79.9996 44.5436C79.9699 38.2325 74.8342 33.0967 68.5231 33.0967ZM60.5626 42.8844C61.3329 39.2005 64.6119 36.4251 68.5231 36.4251C72.4342 36.4251 75.7033 39.2005 76.4835 42.8844H60.5626Z" fill="#572E91"/>
<path d="M68.523 31.4073C71.6638 31.4073 74.2218 28.8591 74.2218 25.7085C74.2218 22.5579 71.6638 20.0195 68.523 20.0195C65.3822 20.0195 62.8242 22.5677 62.8242 25.7183C62.8242 28.8689 65.3823 31.4073 68.523 31.4073ZM68.523 23.348C69.8169 23.348 70.8836 24.4146 70.8836 25.7085C70.8836 27.0024 69.8169 28.0691 68.523 28.0691C67.2291 28.0691 66.1624 27.0024 66.1624 25.7085C66.1624 24.4146 67.2094 23.348 68.523 23.348Z" fill="#572E91"/>
<path d="M58.0738 28.5529L54.6763 23.6048C54.1529 22.8442 53.1256 22.6566 52.3849 23.1801L52.3454 23.1998C51.5848 23.7232 51.3972 24.7503 51.9207 25.4911L52.9281 26.9529C48.928 26.4295 44.8194 26.9628 41.0368 28.5331L41.0268 28.543C40.1873 28.8985 39.7824 29.8566 40.138 30.706L40.1577 30.7258C40.5132 31.5653 41.4713 31.9701 42.3207 31.6146L42.3306 31.6047C45.5998 30.2515 49.1652 29.7874 52.6221 30.2615L50.8048 31.5158C50.0542 32.0392 49.8566 33.0663 50.38 33.8071L50.3997 33.8467C50.9232 34.5973 51.9504 34.7948 52.6911 34.2714L57.6393 30.8739C58.3997 30.3504 58.6071 29.3135 58.0738 28.5529Z" fill="#572E91"/>
<path d="M37.8869 65.8268C35.0819 63.6738 32.919 60.8194 31.5857 57.5898L33.5412 58.5183C34.3708 58.9233 35.3685 58.5676 35.7634 57.7281C36.1684 56.8985 35.8127 55.9009 34.9732 55.5059L29.5806 52.9281C28.7511 52.5231 27.7534 52.8788 27.3585 53.7183L24.7807 59.1208C24.3756 59.9504 24.7313 60.948 25.5708 61.343C26.4004 61.748 27.398 61.3923 27.793 60.5528L28.5633 58.9331C30.1238 62.6763 32.6127 65.9651 35.8621 68.464C36.593 69.017 37.63 68.8887 38.2028 68.1578C38.756 67.4267 38.6178 66.3897 37.8869 65.8268Z" fill="#572E91"/>
<path d="M71.6053 51.1411C70.6967 51.0225 69.8572 51.6645 69.7387 52.583C69.2745 56.0891 67.8818 59.3878 65.7486 62.1533L65.5807 59.9903C65.5115 59.0718 64.7115 58.3804 63.7831 58.4594C62.8646 58.5286 62.1733 59.3286 62.2522 60.257L62.7263 66.2224C62.7955 67.1409 63.5955 67.8322 64.5239 67.7532L70.4893 67.2791C71.4078 67.2099 72.0991 66.41 72.0201 65.4815C71.9509 64.563 71.1509 63.8717 70.2225 63.9507L68.4645 64.089C70.9238 60.8791 72.5139 57.0667 73.0472 53.0075C73.1558 52.0794 72.5238 51.2596 71.6053 51.1411Z" fill="#572E91"/>
</g>
</svg>
