<svg width="100" height="101" viewBox="0 0 100 101" fill="none" xmlns="http://www.w3.org/2000/svg">
<g clip-path="url(#clip0_1_2953)">
<path d="M50 52.5C48.8954 52.5 48 53.3954 48 54.5C48 55.6046 48.8954 56.5 50 56.5C51.1046 56.5 52 55.6046 52 54.5C52 53.3954 51.1046 52.5 50 52.5Z" fill="#572E91"/>
<path fill-rule="evenodd" clip-rule="evenodd" d="M68 45.2639L52 37.2639V32.5H64V20.5H48V37.2639L32 45.2639V52.5H24V76.5H20V80.5H44V64.5H56V80.5H80V76.5H76V52.5H68V45.2639ZM72 76.5V56.5H68V76.5H72ZM32 76.5H28V56.5H32V76.5ZM44 54.5C44 51.1863 46.6863 48.5 50 48.5C53.3137 48.5 56 51.1863 56 54.5C56 57.8137 53.3137 60.5 50 60.5C46.6863 60.5 44 57.8137 44 54.5Z" fill="#572E91"/>
<path d="M52 80.5V68.5H48V80.5H52Z" fill="#572E91"/>
</g>
<defs>
<clipPath id="clip0_1_2953">
<rect width="60" height="60" fill="white" transform="translate(20 20.5)"/>
</clipPath>
</defs>
</svg>
