<svg width="100" height="100" viewBox="0 0 100 100" fill="none" xmlns="http://www.w3.org/2000/svg">
<path d="M49.9909 20C49.3218 20 48.7793 20.5425 48.7793 21.2116V27.3763C48.7792 28.0456 49.3218 28.5881 49.9909 28.5881C50.66 28.5881 51.2025 28.0456 51.2025 27.3765V21.2116C51.2024 20.5425 50.66 20 49.9909 20Z" fill="#572E91"/>
<path d="M46.6337 26.5196L42.2745 22.1605C41.8013 21.6874 41.0342 21.6873 40.561 22.1606C40.0878 22.6337 40.0878 23.4009 40.561 23.8741L44.9202 28.2333C45.3933 28.7062 46.1605 28.7065 46.6337 28.2331C47.1069 27.7601 47.1069 26.9928 46.6337 26.5196Z" fill="#572E91"/>
<path d="M59.4501 22.1606C58.977 21.6874 58.2099 21.6874 57.7366 22.1605L53.3774 26.5196C52.9042 26.9928 52.9042 27.76 53.3774 28.2331C53.8504 28.7063 54.6177 28.7064 55.0909 28.2332L59.4501 23.8741C59.9233 23.4009 59.9233 22.6337 59.4501 22.1606Z" fill="#572E91"/>
<path d="M49.9909 43.3848C49.3218 43.3848 48.7793 43.9272 48.7793 44.5964V50.7612C48.7793 51.4304 49.3218 51.9728 49.9909 51.9728C50.66 51.9728 51.2025 51.4304 51.2025 50.7612V44.5964C51.2024 43.9272 50.66 43.3848 49.9909 43.3848Z" fill="#572E91"/>
<path d="M46.6337 43.7396C46.1606 43.2666 45.3935 43.2664 44.9202 43.7395L40.561 48.0986C40.0878 48.5718 40.0878 49.3391 40.561 49.8122C41.034 50.2854 41.8011 50.2855 42.2745 49.8123L46.6337 45.4531C47.1069 44.9799 47.1069 44.2127 46.6337 43.7396Z" fill="#572E91"/>
<path d="M59.4501 48.0987L55.0909 43.7396C54.6177 43.2665 53.8506 43.2664 53.3774 43.7397C52.9042 44.2128 52.9042 44.98 53.3774 45.4532L57.7366 49.8124C58.2097 50.2853 58.9769 50.2856 59.4501 49.8122C59.9233 49.3392 59.9233 48.5719 59.4501 48.0987Z" fill="#572E91"/>
<path d="M66.9201 36.8803C69.8764 36.8803 72.2729 34.4838 72.2729 31.5276C72.2729 28.5713 69.8764 26.1748 66.9201 26.1748C63.9639 26.1748 61.5674 28.5713 61.5674 31.5276C61.5674 34.4838 63.9639 36.8803 66.9201 36.8803Z" fill="#572E91"/>
<path d="M77.7732 46.5742L72.9074 39.1603C72.5285 38.5829 71.8843 38.2351 71.1938 38.2351C69.9639 38.2351 63.8728 38.2351 62.9316 38.2351L55.8752 37.4102L53.3353 31.3429C52.898 30.2985 51.6971 29.8062 50.653 30.2437C50.4011 30.3492 50.1824 30.4998 50 30.6811C49.8177 30.4998 49.599 30.3491 49.347 30.2437C48.3027 29.8064 47.1019 30.2986 46.6648 31.3429L44.1248 37.4102L37.0684 38.2351C36.1605 38.2351 29.8497 38.2351 28.8063 38.2351C28.1157 38.2351 27.4715 38.5829 27.0926 39.1601L22.2268 46.5742C21.9451 47.0034 21.8347 47.5227 21.9174 48.0292L23.3533 56.8255C23.5358 57.9432 24.5894 58.7007 25.7066 58.5184C26.8238 58.336 27.5818 57.2824 27.3993 56.1652L26.092 48.1565L27.7013 45.7043C27.7013 51.0194 27.6567 60.1418 27.6567 65.4554L25.2909 77.048C25.0192 78.379 25.8781 79.6784 27.2092 79.9499C28.5427 80.2215 29.8399 79.3607 30.111 78.0316L32.5261 66.1955C32.5592 66.0337 32.5758 65.8689 32.5758 65.7037V57.8788H33.6378V77.5396C33.6378 78.898 34.7391 79.9994 36.0975 79.9994C37.456 79.9994 38.5573 78.898 38.5573 77.5396C38.5573 75.3597 38.5582 42.1883 38.5582 42.1883L45.7905 41.3426C46.5256 41.2566 47.1574 40.781 47.4433 40.0982L49.9998 33.9916L52.5562 40.0982C52.842 40.7811 53.4739 41.2566 54.209 41.3426L61.4413 42.1883C61.4413 42.1883 61.4423 75.3597 61.4423 77.5396C61.4423 78.898 62.5436 79.9994 63.902 79.9994C65.2605 79.9994 66.3618 78.898 66.3618 77.5396V57.8788H67.4237V65.7037C67.4237 65.8689 67.4404 66.0336 67.4734 66.1955L69.8886 78.0316C70.1602 79.362 71.4586 80.2214 72.7904 79.9499C74.1214 79.6783 74.9804 78.379 74.7088 77.048L72.3434 65.4555C72.3434 62.1558 72.2988 54.2718 72.2988 45.7043L73.9082 48.1565L72.6008 56.1653C72.4185 57.2825 73.1763 58.336 74.2936 58.5185C75.411 58.7007 76.4645 57.9429 76.6468 56.8256L78.0827 48.0293C78.1653 47.5227 78.0549 47.0034 77.7732 46.5742Z" fill="#572E91"/>
<path d="M33.0783 36.8803C36.0346 36.8803 38.4311 34.4838 38.4311 31.5276C38.4311 28.5713 36.0346 26.1748 33.0783 26.1748C30.1221 26.1748 27.7256 28.5713 27.7256 31.5276C27.7256 34.4838 30.1221 36.8803 33.0783 36.8803Z" fill="#572E91"/>
</svg>
